<?xml version="1.0" encoding="utf-8" ?>
<svg baseProfile="full" height="307" version="1.1" width="419" xmlns="http://www.w3.org/2000/svg" xmlns:ev="http://www.w3.org/2001/xml-events" xmlns:xlink="http://www.w3.org/1999/xlink"><defs /><polygon fill="white" points="129,98 128,99 127,99 81,145 81,146 80,147 80,150 81,151 81,152 128,199 133,199 134,198 135,198 136,197 136,196 137,195 137,191 136,190 136,189 103,156 104,155 323,155 323,143 104,143 103,142 103,141 136,108 136,107 137,106 137,102 134,99 133,99 132,98" /></svg>