<?xml version="1.0" encoding="utf-8" ?>
<svg baseProfile="full" height="307" version="1.1" width="419" xmlns="http://www.w3.org/2000/svg" xmlns:ev="http://www.w3.org/2001/xml-events" xmlns:xlink="http://www.w3.org/1999/xlink"><defs /><polygon fill="white" points="286,98 285,99 284,99 281,102 281,106 282,107 282,108 315,141 315,142 314,143 95,143 95,155 314,155 315,156 282,189 282,190 281,191 281,195 282,196 282,197 283,198 284,198 285,199 290,199 337,152 337,151 338,150 338,147 337,146 337,145 291,99 290,99 289,98" /></svg>